<?xml version="1.0" encoding="UTF-8" standalone="no"?>
<!DOCTYPE svg PUBLIC "-//W3C//DTD SVG 1.1//EN" "http://www.w3.org/Graphics/SVG/1.1/DTD/svg11.dtd">
<svg version="1.1" xmlns="http://www.w3.org/2000/svg" xmlns:xlink="http://www.w3.org/1999/xlink" preserveAspectRatio="xMidYMid meet" viewBox="0 0 640 640" width="640" height="640"><defs><path d="M533.33 592C533.33 574.33 547.66 560 565.33 560C583.01 560 597.33 574.33 597.33 592C597.33 609.67 583.01 624 565.33 624C547.66 624 533.33 609.67 533.33 592ZM554.67 592C554.67 597.89 559.44 602.67 565.33 602.67C571.22 602.67 576 597.89 576 592C576 586.11 571.22 581.33 565.33 581.33C559.44 581.33 554.67 586.11 554.67 592Z" id="dK4ZPM1Gr"></path><path d="M576 592C576 574.33 590.33 560 608 560C625.67 560 640 574.33 640 592C640 609.67 625.67 624 608 624C590.33 624 576 609.67 576 592ZM597.33 592C597.33 597.89 602.11 602.67 608 602.67C613.89 602.67 618.67 597.89 618.67 592C618.67 586.11 613.89 581.33 608 581.33C602.11 581.33 597.33 586.11 597.33 592Z" id="a1awAGexY"></path><path d="M554.67 549.33C554.67 531.66 568.99 517.33 586.67 517.33C604.34 517.33 618.67 531.66 618.67 549.33C618.67 567.01 604.34 581.33 586.67 581.33C568.99 581.33 554.67 567.01 554.67 549.33ZM576 549.33C576 555.22 580.78 560 586.67 560C592.56 560 597.33 555.22 597.33 549.33C597.33 543.44 592.56 538.67 586.67 538.67C580.78 538.67 576 543.44 576 549.33Z" id="b1I0Kaz7l4"></path><path d="M10.67 624L64 570.67L117.33 624" id="c1plN6mF3j"></path><path d="M138.67 133.33L160 133.33L160 282.67L138.67 282.67L138.67 133.33Z" id="j1W9tJulz2"></path><path d="M394.67 186.67L416 186.67L416 368L394.67 368L394.67 186.67Z" id="cd36fTlzZ"></path><path d="M149.33 176L298.67 176L298.67 197.33L149.33 197.33L149.33 176Z" id="iBKi1Adjd"></path><path d="M149.33 229.33L394.67 229.33L394.67 250.67L149.33 250.67L149.33 229.33Z" id="d44SGDxOMi"></path><path d="M309.33 208L330.67 208L330.67 368L309.33 368L309.33 208Z" id="bAM7mpesG"></path><path d="M224 218.67L245.33 218.67L245.33 282.67L224 282.67L224 218.67Z" id="b5LcNdPcXl"></path><path d="M324.39 357.33L281.72 315.11L245.33 315.11L245.33 268.45L138.67 268.45L138.67 634.67L416 634.67L416 357.33L324.39 357.33Z" id="gfmMaNOh5"></path><path d="M181.33 357.33L202.67 357.33L202.67 378.67L181.33 378.67L181.33 357.33Z" id="a1Wo0PpciM"></path><path d="M224 357.33L245.33 357.33L245.33 378.67L224 378.67L224 357.33Z" id="coRCkGIzy"></path><path d="M266.67 357.33L288 357.33L288 378.67L266.67 378.67L266.67 357.33Z" id="f2ujLjVv0E"></path><path d="M181.33 400L202.67 400L202.67 421.33L181.33 421.33L181.33 400Z" id="a3rmeiWRSK"></path><path d="M224 400L245.33 400L245.33 421.33L224 421.33L224 400Z" id="dvaXff8O2"></path><path d="M266.67 400L288 400L288 421.33L266.67 421.33L266.67 400Z" id="kbwYmu2qg"></path><path d="M309.33 400L330.67 400L330.67 421.33L309.33 421.33L309.33 400Z" id="bV78EO5y8"></path><path d="M352 400L373.33 400L373.33 421.33L352 421.33L352 400Z" id="bEOkIUBsC"></path><path d="M181.33 442.67L202.67 442.67L202.67 464L181.33 464L181.33 442.67Z" id="aelWJyp3B"></path><path d="M224 442.67L245.33 442.67L245.33 464L224 464L224 442.67Z" id="f5Puj23uph"></path><path d="M266.67 442.67L288 442.67L288 464L266.67 464L266.67 442.67Z" id="b2t2zq6LUZ"></path><path d="M309.33 442.67L330.67 442.67L330.67 464L309.33 464L309.33 442.67Z" id="a1mE6ooYL4"></path><path d="M352 442.67L373.33 442.67L373.33 464L352 464L352 442.67Z" id="d1petUDnRh"></path><path d="M181.33 485.33L202.67 485.33L202.67 506.67L181.33 506.67L181.33 485.33Z" id="c2ud8k4YNV"></path><path d="M224 485.33L245.33 485.33L245.33 506.67L224 506.67L224 485.33Z" id="b1mkNVmHI"></path><path d="M266.67 485.33L288 485.33L288 506.67L266.67 506.67L266.67 485.33Z" id="ahUrMLL2"></path><path d="M309.33 485.33L330.67 485.33L330.67 506.67L309.33 506.67L309.33 485.33Z" id="a1lLW1YRmG"></path><path d="M352 485.33L373.33 485.33L373.33 506.67L352 506.67L352 485.33Z" id="d40xJ78COa"></path><path d="M181.33 528L202.67 528L202.67 549.33L181.33 549.33L181.33 528Z" id="eJtN8lCnO"></path><path d="M224 528L245.33 528L245.33 549.33L224 549.33L224 528Z" id="b1QMbvYvNc"></path><path d="M266.67 528L288 528L288 549.33L266.67 549.33L266.67 528Z" id="d1p8hsltrU"></path><path d="M309.33 528L330.67 528L330.67 549.33L309.33 549.33L309.33 528Z" id="afwq9N3J"></path><path d="M352 528L373.33 528L373.33 549.33L352 549.33L352 528Z" id="goMVX28WI"></path><path d="M181.33 570.67L202.67 570.67L202.67 592L181.33 592L181.33 570.67Z" id="eq4AmYR62"></path><path d="M224 570.67L245.33 570.67L245.33 592L224 592L224 570.67Z" id="c1OyZEx7Hk"></path><path d="M266.67 570.67L288 570.67L288 592L266.67 592L266.67 570.67Z" id="cv0zyPNix"></path><path d="M309.33 570.67L330.67 570.67L330.67 592L309.33 592L309.33 570.67Z" id="aI9m5xNT"></path><path d="M352 570.67L373.33 570.67L373.33 592L352 592L352 570.67Z" id="b3LIidsZO8"></path><path d="M10.67 378.67L96 378.67L96 421.33L74.67 442.67L32 442.67L10.67 421.33L10.67 378.67Z" id="b9H7iUmwk"></path><path d="M10.67 378.67L42.67 336L64 336L96 378.67" id="a7R7ZR21J"></path><path d="M469.33 90.67C463.44 90.67 458.67 95.44 458.67 101.33C458.67 153.6 458.67 571.73 458.67 624C458.67 629.89 463.44 634.67 469.33 634.67C473.6 634.67 507.73 634.67 512 634.67C517.89 634.67 522.67 629.89 522.67 624C522.67 571.73 522.67 153.6 522.67 101.33C522.67 95.44 517.89 90.67 512 90.67C503.47 90.67 473.6 90.67 469.33 90.67ZM482.14 549.33L501.33 520.53L501.33 578.14L482.14 549.33ZM499.2 229.33L480 258.14L480 200.53L499.2 229.33ZM482.14 165.33L501.33 136.53L501.33 194.14L482.14 165.33ZM480 328.53L499.2 357.33L480 386.14L480 328.53ZM480 456.53L499.2 485.33L480 514.14L480 456.53ZM482.14 421.33L501.33 392.53L501.33 450.14L482.14 421.33ZM482.14 293.33L501.33 264.53L501.33 322.14L482.14 293.33ZM492.05 112L480 130.14L480 112L492.05 112ZM480 584.53L499.2 613.33L480 613.33L480 584.53Z" id="bpfqEY7hE"></path><path d="M10.67 26.67C4.78 26.67 0 31.44 0 37.33C0 41.6 0 75.73 0 80C0 85.89 4.78 90.67 10.67 90.67C53.33 90.67 394.67 90.67 437.33 90.67C443.22 90.67 448 85.89 448 80C448 75.73 448 41.6 448 37.33C448 31.44 443.22 26.67 437.33 26.67C352 26.67 53.33 26.67 10.67 26.67ZM160 50.14L188.8 69.33L131.2 69.33L160 50.14ZM96 67.2L67.2 48L124.8 48L96 67.2ZM195.2 48L252.8 48L224 67.2L195.2 48ZM288 50.14L316.8 69.33L259.2 69.33L288 50.14ZM323.2 48L380.8 48L352 67.2L323.2 48ZM21.33 48L28.8 48L60.8 69.33L21.33 69.33L21.33 48ZM426.67 69.33L387.2 69.33L419.2 48L426.67 48L426.67 69.33Z" id="cVCOnFj8o"></path><path d="M544 26.67C538.11 26.67 533.33 31.44 533.33 37.33C533.33 41.6 533.33 75.73 533.33 80C533.33 85.89 538.11 90.67 544 90.67C552.53 90.67 620.8 90.67 629.33 90.67C635.22 90.67 640 85.89 640 80C640 75.73 640 41.6 640 37.33C640 31.44 635.22 26.67 629.33 26.67C612.27 26.67 552.53 26.67 544 26.67ZM583.47 48L554.67 67.2L554.67 48L583.47 48ZM589.86 69.33L618.67 50.14L618.67 69.33L589.86 69.33Z" id="d2sx3UEc3x"></path><path d="M21.33 314.67C23.47 314.67 40.53 314.67 42.67 314.67C42.67 320.56 47.44 325.33 53.33 325.33C59.22 325.33 64 320.56 64 314.67C64 308.78 59.22 304 53.33 304C47.44 304 42.67 299.22 42.67 293.33C42.67 279.11 42.67 208 42.67 80L64 80C64 202.69 64 270.86 64 284.49C78.7 289.68 87.53 304.71 84.89 320.08C82.26 335.44 68.93 346.68 53.33 346.67C35.66 346.67 21.33 332.34 21.33 314.67Z" id="g3PlTcgldS"></path><path d="M437.33 5.33L544 5.33L544 101.33L437.33 101.33L437.33 5.33Z" id="daRCrFLUi"></path><path d="M437.33 5.33L501.33 5.33L501.33 69.33L437.33 69.33L437.33 5.33Z" id="b5ng8FLC5r"></path><path d="M0 613.33L640 613.33L640 634.67L0 634.67L0 613.33Z" id="b53jZdwz8J"></path><path d="M437.33 69.33C469.63 62.88 494.88 37.63 501.33 5.33C501.33 9.6 501.33 30.93 501.33 69.33C467.2 69.33 445.87 69.33 437.33 69.33Z" id="b1nfcDvTFJ"></path><path d="M508.81 47.85C507.82 47.64 502.87 46.59 493.97 44.7C497.15 29.7 498.92 21.37 499.28 19.71C499.51 18.63 499 17.56 498.07 17.13C497.12 16.69 496.03 17.03 495.42 17.92C492.85 21.65 472.33 51.48 469.77 55.21C469.32 55.85 469.21 56.68 469.47 57.4C469.72 58.13 470.31 58.67 471.02 58.82C472.01 59.03 476.96 60.08 485.86 61.97C482.68 76.97 480.91 85.3 480.55 86.96C480.32 88.04 480.83 89.11 481.76 89.54C481.9 89.61 482.04 89.66 482.19 89.69C483.01 89.86 483.89 89.51 484.41 88.75C486.98 85.02 507.5 55.19 510.06 51.46C510.5 50.81 510.62 49.99 510.36 49.27C510.11 48.53 509.52 48 508.81 47.85Z" id="e4rerx16Dx"></path></defs><g><g><g><use xlink:href="#dK4ZPM1Gr" opacity="1" fill="#424242" fill-opacity="1"></use><g><use xlink:href="#dK4ZPM1Gr" opacity="1" fill-opacity="0" stroke="#000000" stroke-width="1" stroke-opacity="0"></use></g></g><g><use xlink:href="#a1awAGexY" opacity="1" fill="#424242" fill-opacity="1"></use><g><use xlink:href="#a1awAGexY" opacity="1" fill-opacity="0" stroke="#000000" stroke-width="1" stroke-opacity="0"></use></g></g><g><use xlink:href="#b1I0Kaz7l4" opacity="1" fill="#424242" fill-opacity="1"></use><g><use xlink:href="#b1I0Kaz7l4" opacity="1" fill-opacity="0" stroke="#000000" stroke-width="1" stroke-opacity="0"></use></g></g><g><use xlink:href="#c1plN6mF3j" opacity="1" fill="#b3b3b3" fill-opacity="1"></use><g><use xlink:href="#c1plN6mF3j" opacity="1" fill-opacity="0" stroke="#000000" stroke-width="1" stroke-opacity="0"></use></g></g><g><use xlink:href="#j1W9tJulz2" opacity="1" fill="#424242" fill-opacity="1"></use><g><use xlink:href="#j1W9tJulz2" opacity="1" fill-opacity="0" stroke="#000000" stroke-width="1" stroke-opacity="0"></use></g></g><g><use xlink:href="#cd36fTlzZ" opacity="1" fill="#424242" fill-opacity="1"></use><g><use xlink:href="#cd36fTlzZ" opacity="1" fill-opacity="0" stroke="#000000" stroke-width="1" stroke-opacity="0"></use></g></g><g><use xlink:href="#iBKi1Adjd" opacity="1" fill="#424242" fill-opacity="1"></use><g><use xlink:href="#iBKi1Adjd" opacity="1" fill-opacity="0" stroke="#000000" stroke-width="1" stroke-opacity="0"></use></g></g><g><use xlink:href="#d44SGDxOMi" opacity="1" fill="#424242" fill-opacity="1"></use><g><use xlink:href="#d44SGDxOMi" opacity="1" fill-opacity="0" stroke="#000000" stroke-width="1" stroke-opacity="0"></use></g></g><g><use xlink:href="#bAM7mpesG" opacity="1" fill="#424242" fill-opacity="1"></use><g><use xlink:href="#bAM7mpesG" opacity="1" fill-opacity="0" stroke="#000000" stroke-width="1" stroke-opacity="0"></use></g></g><g><use xlink:href="#b5LcNdPcXl" opacity="1" fill="#424242" fill-opacity="1"></use><g><use xlink:href="#b5LcNdPcXl" opacity="1" fill-opacity="0" stroke="#000000" stroke-width="1" stroke-opacity="0"></use></g></g><g><use xlink:href="#gfmMaNOh5" opacity="1" fill="#e6e6e6" fill-opacity="1"></use><g><use xlink:href="#gfmMaNOh5" opacity="1" fill-opacity="0" stroke="#000000" stroke-width="1" stroke-opacity="0"></use></g></g><g><use xlink:href="#a1Wo0PpciM" opacity="1" fill="#00c9dd" fill-opacity="1"></use><g><use xlink:href="#a1Wo0PpciM" opacity="1" fill-opacity="0" stroke="#000000" stroke-width="1" stroke-opacity="0"></use></g></g><g><use xlink:href="#coRCkGIzy" opacity="1" fill="#00c9dd" fill-opacity="1"></use><g><use xlink:href="#coRCkGIzy" opacity="1" fill-opacity="0" stroke="#000000" stroke-width="1" stroke-opacity="0"></use></g></g><g><use xlink:href="#f2ujLjVv0E" opacity="1" fill="#00c9dd" fill-opacity="1"></use><g><use xlink:href="#f2ujLjVv0E" opacity="1" fill-opacity="0" stroke="#000000" stroke-width="1" stroke-opacity="0"></use></g></g><g><use xlink:href="#a3rmeiWRSK" opacity="1" fill="#00c9dd" fill-opacity="1"></use><g><use xlink:href="#a3rmeiWRSK" opacity="1" fill-opacity="0" stroke="#000000" stroke-width="1" stroke-opacity="0"></use></g></g><g><use xlink:href="#dvaXff8O2" opacity="1" fill="#00c9dd" fill-opacity="1"></use><g><use xlink:href="#dvaXff8O2" opacity="1" fill-opacity="0" stroke="#000000" stroke-width="1" stroke-opacity="0"></use></g></g><g><use xlink:href="#kbwYmu2qg" opacity="1" fill="#00c9dd" fill-opacity="1"></use><g><use xlink:href="#kbwYmu2qg" opacity="1" fill-opacity="0" stroke="#000000" stroke-width="1" stroke-opacity="0"></use></g></g><g><use xlink:href="#bV78EO5y8" opacity="1" fill="#00c9dd" fill-opacity="1"></use><g><use xlink:href="#bV78EO5y8" opacity="1" fill-opacity="0" stroke="#000000" stroke-width="1" stroke-opacity="0"></use></g></g><g><use xlink:href="#bEOkIUBsC" opacity="1" fill="#00c9dd" fill-opacity="1"></use><g><use xlink:href="#bEOkIUBsC" opacity="1" fill-opacity="0" stroke="#000000" stroke-width="1" stroke-opacity="0"></use></g></g><g><use xlink:href="#aelWJyp3B" opacity="1" fill="#00c9dd" fill-opacity="1"></use><g><use xlink:href="#aelWJyp3B" opacity="1" fill-opacity="0" stroke="#000000" stroke-width="1" stroke-opacity="0"></use></g></g><g><use xlink:href="#f5Puj23uph" opacity="1" fill="#00c9dd" fill-opacity="1"></use><g><use xlink:href="#f5Puj23uph" opacity="1" fill-opacity="0" stroke="#000000" stroke-width="1" stroke-opacity="0"></use></g></g><g><use xlink:href="#b2t2zq6LUZ" opacity="1" fill="#00c9dd" fill-opacity="1"></use><g><use xlink:href="#b2t2zq6LUZ" opacity="1" fill-opacity="0" stroke="#000000" stroke-width="1" stroke-opacity="0"></use></g></g><g><use xlink:href="#a1mE6ooYL4" opacity="1" fill="#00c9dd" fill-opacity="1"></use><g><use xlink:href="#a1mE6ooYL4" opacity="1" fill-opacity="0" stroke="#000000" stroke-width="1" stroke-opacity="0"></use></g></g><g><use xlink:href="#d1petUDnRh" opacity="1" fill="#00c9dd" fill-opacity="1"></use><g><use xlink:href="#d1petUDnRh" opacity="1" fill-opacity="0" stroke="#000000" stroke-width="1" stroke-opacity="0"></use></g></g><g><use xlink:href="#c2ud8k4YNV" opacity="1" fill="#00c9dd" fill-opacity="1"></use><g><use xlink:href="#c2ud8k4YNV" opacity="1" fill-opacity="0" stroke="#000000" stroke-width="1" stroke-opacity="0"></use></g></g><g><use xlink:href="#b1mkNVmHI" opacity="1" fill="#00c9dd" fill-opacity="1"></use><g><use xlink:href="#b1mkNVmHI" opacity="1" fill-opacity="0" stroke="#000000" stroke-width="1" stroke-opacity="0"></use></g></g><g><use xlink:href="#ahUrMLL2" opacity="1" fill="#00c9dd" fill-opacity="1"></use><g><use xlink:href="#ahUrMLL2" opacity="1" fill-opacity="0" stroke="#000000" stroke-width="1" stroke-opacity="0"></use></g></g><g><use xlink:href="#a1lLW1YRmG" opacity="1" fill="#00c9dd" fill-opacity="1"></use><g><use xlink:href="#a1lLW1YRmG" opacity="1" fill-opacity="0" stroke="#000000" stroke-width="1" stroke-opacity="0"></use></g></g><g><use xlink:href="#d40xJ78COa" opacity="1" fill="#00c9dd" fill-opacity="1"></use><g><use xlink:href="#d40xJ78COa" opacity="1" fill-opacity="0" stroke="#000000" stroke-width="1" stroke-opacity="0"></use></g></g><g><use xlink:href="#eJtN8lCnO" opacity="1" fill="#00c9dd" fill-opacity="1"></use><g><use xlink:href="#eJtN8lCnO" opacity="1" fill-opacity="0" stroke="#000000" stroke-width="1" stroke-opacity="0"></use></g></g><g><use xlink:href="#b1QMbvYvNc" opacity="1" fill="#00c9dd" fill-opacity="1"></use><g><use xlink:href="#b1QMbvYvNc" opacity="1" fill-opacity="0" stroke="#000000" stroke-width="1" stroke-opacity="0"></use></g></g><g><use xlink:href="#d1p8hsltrU" opacity="1" fill="#00c9dd" fill-opacity="1"></use><g><use xlink:href="#d1p8hsltrU" opacity="1" fill-opacity="0" stroke="#000000" stroke-width="1" stroke-opacity="0"></use></g></g><g><use xlink:href="#afwq9N3J" opacity="1" fill="#00c9dd" fill-opacity="1"></use><g><use xlink:href="#afwq9N3J" opacity="1" fill-opacity="0" stroke="#000000" stroke-width="1" stroke-opacity="0"></use></g></g><g><use xlink:href="#goMVX28WI" opacity="1" fill="#00c9dd" fill-opacity="1"></use><g><use xlink:href="#goMVX28WI" opacity="1" fill-opacity="0" stroke="#000000" stroke-width="1" stroke-opacity="0"></use></g></g><g><use xlink:href="#eq4AmYR62" opacity="1" fill="#00c9dd" fill-opacity="1"></use><g><use xlink:href="#eq4AmYR62" opacity="1" fill-opacity="0" stroke="#000000" stroke-width="1" stroke-opacity="0"></use></g></g><g><use xlink:href="#c1OyZEx7Hk" opacity="1" fill="#00c9dd" fill-opacity="1"></use><g><use xlink:href="#c1OyZEx7Hk" opacity="1" fill-opacity="0" stroke="#000000" stroke-width="1" stroke-opacity="0"></use></g></g><g><use xlink:href="#cv0zyPNix" opacity="1" fill="#00c9dd" fill-opacity="1"></use><g><use xlink:href="#cv0zyPNix" opacity="1" fill-opacity="0" stroke="#000000" stroke-width="1" stroke-opacity="0"></use></g></g><g><use xlink:href="#aI9m5xNT" opacity="1" fill="#00c9dd" fill-opacity="1"></use><g><use xlink:href="#aI9m5xNT" opacity="1" fill-opacity="0" stroke="#000000" stroke-width="1" stroke-opacity="0"></use></g></g><g><use xlink:href="#b3LIidsZO8" opacity="1" fill="#00c9dd" fill-opacity="1"></use><g><use xlink:href="#b3LIidsZO8" opacity="1" fill-opacity="0" stroke="#000000" stroke-width="1" stroke-opacity="0"></use></g></g><g><use xlink:href="#b9H7iUmwk" opacity="1" fill="#fccf51" fill-opacity="1"></use><g><use xlink:href="#b9H7iUmwk" opacity="1" fill-opacity="0" stroke="#000000" stroke-width="1" stroke-opacity="0"></use></g></g><g><use xlink:href="#a7R7ZR21J" opacity="1" fill="#b3b3b3" fill-opacity="1"></use><g><use xlink:href="#a7R7ZR21J" opacity="1" fill-opacity="0" stroke="#000000" stroke-width="1" stroke-opacity="0"></use></g></g><g><use xlink:href="#bpfqEY7hE" opacity="1" fill="#fcba03" fill-opacity="1"></use><g><use xlink:href="#bpfqEY7hE" opacity="1" fill-opacity="0" stroke="#000000" stroke-width="1" stroke-opacity="0"></use></g></g><g><use xlink:href="#cVCOnFj8o" opacity="1" fill="#fcba03" fill-opacity="1"></use><g><use xlink:href="#cVCOnFj8o" opacity="1" fill-opacity="0" stroke="#000000" stroke-width="1" stroke-opacity="0"></use></g></g><g><use xlink:href="#d2sx3UEc3x" opacity="1" fill="#fcba03" fill-opacity="1"></use><g><use xlink:href="#d2sx3UEc3x" opacity="1" fill-opacity="0" stroke="#000000" stroke-width="1" stroke-opacity="0"></use></g></g><g><use xlink:href="#g3PlTcgldS" opacity="1" fill="#424242" fill-opacity="1"></use><g><use xlink:href="#g3PlTcgldS" opacity="1" fill-opacity="0" stroke="#000000" stroke-width="1" stroke-opacity="0"></use></g></g><g><use xlink:href="#daRCrFLUi" opacity="1" fill="#fccf51" fill-opacity="1"></use><g><use xlink:href="#daRCrFLUi" opacity="1" fill-opacity="0" stroke="#000000" stroke-width="1" stroke-opacity="0"></use></g></g><g><use xlink:href="#b5ng8FLC5r" opacity="1" fill="#fccf51" fill-opacity="1"></use><g><use xlink:href="#b5ng8FLC5r" opacity="1" fill-opacity="0" stroke="#000000" stroke-width="1" stroke-opacity="0"></use></g></g><g><use xlink:href="#b53jZdwz8J" opacity="1" fill="#603813" fill-opacity="1"></use><g><use xlink:href="#b53jZdwz8J" opacity="1" fill-opacity="0" stroke="#000000" stroke-width="1" stroke-opacity="0"></use></g></g><g><use xlink:href="#b1nfcDvTFJ" opacity="1" fill="#fccf51" fill-opacity="1"></use><g><use xlink:href="#b1nfcDvTFJ" opacity="1" fill-opacity="0" stroke="#000000" stroke-width="1" stroke-opacity="0"></use></g></g><g><use xlink:href="#e4rerx16Dx" opacity="1" fill="#fcba03" fill-opacity="1"></use><g><use xlink:href="#e4rerx16Dx" opacity="1" fill-opacity="0" stroke="#424242" stroke-width="5" stroke-opacity="1"></use></g></g></g></g></svg>