<?xml version="1.0" encoding="UTF-8" standalone="no"?>
<!DOCTYPE svg PUBLIC "-//W3C//DTD SVG 1.1//EN" "http://www.w3.org/Graphics/SVG/1.1/DTD/svg11.dtd">
<svg version="1.1" xmlns="http://www.w3.org/2000/svg" xmlns:xlink="http://www.w3.org/1999/xlink" preserveAspectRatio="xMidYMid meet" viewBox="0 0 640 640" width="640" height="640"><defs><path d="M448.57 576C473.42 576 493.57 555.85 493.57 531C493.57 506.15 473.42 486 448.57 486C423.72 486 403.57 506.15 403.57 531C403.57 555.85 423.72 576 448.57 576Z" id="b2OkjY1UQP"></path><path d="M448.57 576C473.42 576 493.57 555.85 493.57 531C493.57 506.15 473.42 486 448.57 486C423.72 486 403.57 506.15 403.57 531C403.57 555.85 423.72 576 448.57 576Z" id="ayQZOpbNp"></path><path d="M448.57 576C473.42 576 493.57 555.85 493.57 531C493.57 506.15 473.42 486 448.57 486C448.57 495 448.57 567 448.57 576Z" id="e5bEXv9GUC"></path><path d="M448.57 576C473.42 576 493.57 555.85 493.57 531C493.57 506.15 473.42 486 448.57 486C448.57 495 448.57 567 448.57 576Z" id="d2dxOOmpwt"></path><path d="M403.57 408C403.57 432.85 423.72 453 448.57 453C473.42 453 493.57 432.85 493.57 408C493.57 378.1 493.57 138.9 493.57 109C493.57 84.15 473.42 64 448.57 64C423.72 64 403.57 84.15 403.57 109C403.57 138.9 403.57 378.1 403.57 408Z" id="a4aQs8Vq8"></path><path d="M403.57 408C403.57 432.85 423.72 453 448.57 453C473.42 453 493.57 432.85 493.57 408C493.57 378.1 493.57 138.9 493.57 109C493.57 84.15 473.42 64 448.57 64C423.72 64 403.57 84.15 403.57 109C403.57 138.9 403.57 378.1 403.57 408Z" id="ibcbYjOLxG"></path><path d="M448.57 64C448.57 102.9 448.57 414.1 448.57 453C473.42 453 493.57 432.85 493.57 408C493.57 348.2 493.57 138.9 493.57 109C493.57 84.15 473.42 64 448.57 64Z" id="nxZ3xU5gc"></path><path d="M448.57 64C448.57 102.9 448.57 414.1 448.57 453C473.42 453 493.57 432.85 493.57 408C493.57 348.2 493.57 138.9 493.57 109C493.57 84.15 473.42 64 448.57 64Z" id="aRzROHxc"></path><path d="M355.39 294.42C361.75 294.42 366.9 299.58 366.9 305.94C366.9 316.07 366.9 334.95 366.9 345.09C366.9 351.45 361.75 356.6 355.39 356.6C319.94 356.6 225.13 356.6 189.69 356.6C183.33 356.6 178.18 351.45 178.18 345.09C178.18 334.95 178.18 316.07 178.18 305.94C178.18 299.58 183.33 294.42 189.69 294.42C225.13 294.42 319.94 294.42 355.39 294.42Z" id="arhPSvhSl"></path><path d="M354.37 190.14C361.29 190.14 366.9 195.75 366.9 202.67C366.9 212.6 366.9 229.86 366.9 239.79C366.9 246.71 361.29 252.32 354.37 252.32C312.36 252.32 198.88 252.32 156.87 252.32C149.95 252.32 144.34 246.71 144.34 239.79C144.34 229.86 144.34 212.6 144.34 202.67C144.34 195.75 149.95 190.14 156.87 190.14C198.88 190.14 312.36 190.14 354.37 190.14Z" id="dlgoZprTG"></path><path d="M354.37 86.93C361.29 86.93 366.9 92.54 366.9 99.46C366.9 109.39 366.9 126.65 366.9 136.58C366.9 143.5 361.29 149.11 354.37 149.11C304.39 149.11 167 149.11 117.02 149.11C110.1 149.11 104.49 143.5 104.49 136.58C104.49 126.65 104.49 109.39 104.49 99.46C104.49 92.54 110.1 86.93 117.02 86.93C167 86.93 304.39 86.93 354.37 86.93Z" id="a6Z8Gkpsz9"></path></defs><g><g><g><use xlink:href="#b2OkjY1UQP" opacity="1" fill="#fccf51" fill-opacity="1"></use><g><use xlink:href="#b2OkjY1UQP" opacity="1" fill-opacity="0" stroke="#000000" stroke-width="1" stroke-opacity="0"></use></g></g><g><use xlink:href="#ayQZOpbNp" opacity="1" fill="#000000" fill-opacity="0"></use><g><use xlink:href="#ayQZOpbNp" opacity="1" fill-opacity="0" stroke="#000000" stroke-width="1" stroke-opacity="0"></use></g></g><g><use xlink:href="#e5bEXv9GUC" opacity="1" fill="#fcba03" fill-opacity="1"></use><g><use xlink:href="#e5bEXv9GUC" opacity="1" fill-opacity="0" stroke="#000000" stroke-width="1" stroke-opacity="0"></use></g></g><g><use xlink:href="#d2dxOOmpwt" opacity="1" fill="#000000" fill-opacity="0"></use><g><use xlink:href="#d2dxOOmpwt" opacity="1" fill-opacity="0" stroke="#000000" stroke-width="1" stroke-opacity="0"></use></g></g><g><use xlink:href="#a4aQs8Vq8" opacity="1" fill="#fccf51" fill-opacity="1"></use><g><use xlink:href="#a4aQs8Vq8" opacity="1" fill-opacity="0" stroke="#000000" stroke-width="1" stroke-opacity="0"></use></g></g><g><use xlink:href="#ibcbYjOLxG" opacity="1" fill="#000000" fill-opacity="0"></use><g><use xlink:href="#ibcbYjOLxG" opacity="1" fill-opacity="0" stroke="#000000" stroke-width="1" stroke-opacity="0"></use></g></g><g><use xlink:href="#nxZ3xU5gc" opacity="1" fill="#fcba03" fill-opacity="1"></use><g><use xlink:href="#nxZ3xU5gc" opacity="1" fill-opacity="0" stroke="#000000" stroke-width="1" stroke-opacity="0"></use></g></g><g><use xlink:href="#aRzROHxc" opacity="1" fill="#000000" fill-opacity="0"></use><g><use xlink:href="#aRzROHxc" opacity="1" fill-opacity="0" stroke="#000000" stroke-width="1" stroke-opacity="0"></use></g></g><g><use xlink:href="#arhPSvhSl" opacity="1" fill="#fccf51" fill-opacity="1"></use></g><g><use xlink:href="#dlgoZprTG" opacity="1" fill="#fccf51" fill-opacity="1"></use></g><g><use xlink:href="#a6Z8Gkpsz9" opacity="1" fill="#fccf51" fill-opacity="1"></use></g></g></g></svg>