<?xml version="1.0" encoding="UTF-8" standalone="no"?>
<!DOCTYPE svg PUBLIC "-//W3C//DTD SVG 1.1//EN" "http://www.w3.org/Graphics/SVG/1.1/DTD/svg11.dtd">
<svg version="1.1" xmlns="http://www.w3.org/2000/svg" xmlns:xlink="http://www.w3.org/1999/xlink" preserveAspectRatio="xMidYMid meet" viewBox="0 0 640 640" width="640" height="640"><defs><path d="M54.89 318.96C54.89 464.67 175.33 585.11 321.04 585.11C466.74 585.11 585.11 464.67 585.11 318.96C585.11 173.26 466.74 54.89 321.04 54.89C175.33 54.89 54.89 173.26 54.89 318.96Z" id="f83V3MDO5"></path><path d="M321.04 585.11C321.04 532.09 321.04 107.91 321.04 54.89C466.74 54.89 585.11 173.26 585.11 318.96C585.11 464.67 466.74 585.11 321.04 585.11Z" id="c1pCULoC1x"></path><path d="M117.02 318.96C117.02 430.19 209.81 522.98 321.04 522.98C432.26 522.98 522.98 430.19 522.98 318.96C522.98 207.74 432.26 117.02 321.04 117.02C209.81 117.02 117.02 207.74 117.02 318.96Z" id="be1EIYUKj"></path><path d="M321.04 522.98C321.04 482.38 321.04 157.62 321.04 117.02C432.26 117.02 522.98 207.74 522.98 318.96C522.98 430.19 432.26 522.98 321.04 522.98Z" id="e2KxYROSOk"></path><path d="M392.44 299.28C388.7 298.48 370.01 294.51 336.35 287.36C348.4 230.68 355.09 199.19 356.43 192.89C357.29 188.84 355.39 184.77 351.87 183.14C348.28 181.48 344.16 182.78 341.83 186.14C332.14 200.24 254.56 313 244.87 327.1C243.2 329.51 242.78 332.65 243.74 335.39C244.7 338.14 246.92 340.15 249.63 340.73C253.37 341.53 272.06 345.5 305.72 352.65C293.67 409.33 286.98 440.82 285.64 447.12C284.78 451.17 286.68 455.24 290.2 456.87C290.74 457.11 291.28 457.3 291.83 457.41C294.94 458.07 298.25 456.75 300.24 453.87C309.93 439.77 387.5 327.01 397.2 312.91C398.86 310.48 399.3 307.38 398.33 304.62C397.37 301.85 395.15 299.86 392.44 299.28Z" id="bGyokpyzr"></path></defs><g><g><g><use xlink:href="#f83V3MDO5" opacity="1" fill="#fedb41" fill-opacity="1"></use><g><use xlink:href="#f83V3MDO5" opacity="1" fill-opacity="0" stroke="#000000" stroke-width="1" stroke-opacity="0"></use></g></g><g><use xlink:href="#c1pCULoC1x" opacity="1" fill="#ffcc33" fill-opacity="1"></use><g><use xlink:href="#c1pCULoC1x" opacity="1" fill-opacity="0" stroke="#000000" stroke-width="1" stroke-opacity="0"></use></g></g><g><use xlink:href="#be1EIYUKj" opacity="1" fill="#fea832" fill-opacity="1"></use><g><use xlink:href="#be1EIYUKj" opacity="1" fill-opacity="0" stroke="#000000" stroke-width="1" stroke-opacity="0"></use></g></g><g><use xlink:href="#e2KxYROSOk" opacity="1" fill="#fe9923" fill-opacity="1"></use><g><use xlink:href="#e2KxYROSOk" opacity="1" fill-opacity="0" stroke="#000000" stroke-width="1" stroke-opacity="0"></use></g></g><g><use xlink:href="#bGyokpyzr" opacity="1" fill="#fcba03" fill-opacity="1"></use><g><use xlink:href="#bGyokpyzr" opacity="1" fill-opacity="0" stroke="#424242" stroke-width="13" stroke-opacity="1"></use></g></g></g></g></svg>