<?xml version="1.0" encoding="UTF-8" standalone="no"?>
<!DOCTYPE svg PUBLIC "-//W3C//DTD SVG 1.1//EN" "http://www.w3.org/Graphics/SVG/1.1/DTD/svg11.dtd">
<svg version="1.1" xmlns="http://www.w3.org/2000/svg" xmlns:xlink="http://www.w3.org/1999/xlink" preserveAspectRatio="xMidYMid meet" viewBox="0 0 640 640" width="640" height="640"><defs><path d="M81.91 320C81.91 188.74 188.69 81.96 319.95 81.96C451.21 81.96 557.99 188.74 557.99 320C557.99 451.26 451.21 558.04 319.95 558.04C188.69 558.04 81.91 451.26 81.91 320Z" id="g14QGkL8Xk"></path><path d="M320 558.04C451.23 558.01 557.99 451.24 557.99 320C557.99 188.76 451.23 81.99 320 81.96C320 177.18 320 510.43 320 558.04Z" id="a3ib7t2r6"></path><path d="M140.82 361.8C123.25 379.38 94.75 379.38 77.18 361.8C59.61 344.23 59.61 315.74 77.18 298.16C94.75 280.59 146.48 275.54 154.96 284.02C163.45 292.51 158.39 344.23 140.82 361.8Z" id="a12KpJk7lu"></path><path d="M499.18 361.8C516.75 379.38 545.25 379.38 562.82 361.8C580.39 344.23 580.39 315.74 562.82 298.16C545.25 280.59 493.52 275.54 485.04 284.02C476.55 292.51 481.61 344.23 499.18 361.8Z" id="b7BxcLscz1"></path><path d="M431.86 268.74C423.3 258.7 410.82 252.94 397.63 252.94C384.44 252.94 371.96 258.69 363.4 268.73C358.02 275.03 348.55 275.78 342.25 270.4C335.95 265.02 335.2 255.55 340.58 249.25C354.85 232.53 375.65 222.94 397.63 222.94C419.62 222.94 440.42 232.54 454.69 249.27C460.07 255.57 459.31 265.04 453.01 270.41C450.19 272.82 446.73 274 443.28 274C439.04 274 434.83 272.21 431.86 268.74Z" id="h28qZl2zN7"></path><path d="M276.58 268.74C268.02 258.7 255.54 252.94 242.34 252.94C229.16 252.94 216.68 258.69 208.12 268.73C202.74 275.03 193.27 275.78 186.97 270.4C180.67 265.02 179.92 255.55 185.3 249.25C199.57 232.53 220.36 222.94 242.34 222.94C264.33 222.94 285.13 232.54 299.4 249.27C304.78 255.57 304.03 265.04 297.73 270.41C294.9 272.82 291.44 274 288 274C283.76 274 279.55 272.21 276.58 268.74Z" id="f1a2tMYfbw"></path><path d="M243 464.79C212.96 441.65 193.57 405.33 193.57 364.57C193.57 364.36 193.57 362.71 193.57 362.5C193.57 358.36 196.93 355 201.07 355C224.86 355 415.15 355 438.93 355C443.07 355 446.43 358.36 446.43 362.5C446.43 362.71 446.43 364.36 446.43 364.57C446.43 405.33 427.04 441.65 397 464.78C375.66 481.22 348.95 448.5 320 448.5C291.05 448.5 264.34 481.22 243 464.79Z" id="byy9kPyVQ"></path><path d="M320 355C320 411.1 320 442.27 320 448.5C348.95 448.5 375.66 481.22 397 464.79C427.04 441.65 446.43 405.33 446.43 364.57C446.43 364.36 446.43 362.71 446.43 362.5C446.43 358.36 443.07 355 438.93 355C423.07 355 383.43 355 320 355Z" id="dIyKxCY6K"></path><path d="M320 491C348.98 491 375.71 481.19 397.05 464.73C391.22 436.27 358.95 414.5 320 414.5C281.05 414.5 248.78 436.27 242.95 464.73C264.29 481.19 291.02 491 320 491Z" id="f57WAp4wCW"></path><path d="M320 491C348.98 491 375.71 481.19 397.05 464.73C391.22 436.27 358.95 414.5 320 414.5C320 429.8 320 475.7 320 491Z" id="a4dKtRoNvW"></path></defs><g><g><g><use xlink:href="#g14QGkL8Xk" opacity="1" fill="#ffde46" fill-opacity="1"></use><g><use xlink:href="#g14QGkL8Xk" opacity="1" fill-opacity="0" stroke="#000000" stroke-width="1" stroke-opacity="0"></use></g></g><g><use xlink:href="#a3ib7t2r6" opacity="1" fill="#ffcd00" fill-opacity="1"></use><g><use xlink:href="#a3ib7t2r6" opacity="1" fill-opacity="0" stroke="#000000" stroke-width="1" stroke-opacity="0"></use></g></g><g><use xlink:href="#a12KpJk7lu" opacity="1" fill="#00cef5" fill-opacity="1"></use><g><use xlink:href="#a12KpJk7lu" opacity="1" fill-opacity="0" stroke="#000000" stroke-width="1" stroke-opacity="0"></use></g></g><g><use xlink:href="#b7BxcLscz1" opacity="1" fill="#008adf" fill-opacity="1"></use><g><use xlink:href="#b7BxcLscz1" opacity="1" fill-opacity="0" stroke="#000000" stroke-width="1" stroke-opacity="0"></use></g></g><g><use xlink:href="#h28qZl2zN7" opacity="1" fill="#001737" fill-opacity="1"></use><g><use xlink:href="#h28qZl2zN7" opacity="1" fill-opacity="0" stroke="#000000" stroke-width="1" stroke-opacity="0"></use></g></g><g><use xlink:href="#f1a2tMYfbw" opacity="1" fill="#00347b" fill-opacity="1"></use><g><use xlink:href="#f1a2tMYfbw" opacity="1" fill-opacity="0" stroke="#000000" stroke-width="1" stroke-opacity="0"></use></g></g><g><use xlink:href="#byy9kPyVQ" opacity="1" fill="#00347b" fill-opacity="1"></use><g><use xlink:href="#byy9kPyVQ" opacity="1" fill-opacity="0" stroke="#000000" stroke-width="1" stroke-opacity="0"></use></g></g><g><use xlink:href="#dIyKxCY6K" opacity="1" fill="#001737" fill-opacity="1"></use><g><use xlink:href="#dIyKxCY6K" opacity="1" fill-opacity="0" stroke="#000000" stroke-width="1" stroke-opacity="0"></use></g></g><g><use xlink:href="#f57WAp4wCW" opacity="1" fill="#ff3f5c" fill-opacity="1"></use><g><use xlink:href="#f57WAp4wCW" opacity="1" fill-opacity="0" stroke="#000000" stroke-width="1" stroke-opacity="0"></use></g></g><g><use xlink:href="#a4dKtRoNvW" opacity="1" fill="#d20763" fill-opacity="1"></use><g><use xlink:href="#a4dKtRoNvW" opacity="1" fill-opacity="0" stroke="#000000" stroke-width="1" stroke-opacity="0"></use></g></g></g></g></svg>