<?xml version="1.0" encoding="UTF-8" standalone="no"?>
<!DOCTYPE svg PUBLIC "-//W3C//DTD SVG 1.1//EN" "http://www.w3.org/Graphics/SVG/1.1/DTD/svg11.dtd">
<svg version="1.1" xmlns="http://www.w3.org/2000/svg" xmlns:xlink="http://www.w3.org/1999/xlink" preserveAspectRatio="xMidYMid meet" viewBox="0 0 640 640" width="640" height="640"><defs><path d="M363.81 274.93L363.81 534.16L276.19 534.16L276.19 274.93" id="b3WAJ4HVRv"></path><path d="M309.03 274.93L309.03 534.16L276.19 534.16L276.19 274.93" id="aEhiUbsTU"></path><path d="M376.07 532.09C376.07 532.09 376.07 532.09 376.07 532.09C376.07 562.95 376.07 580.09 376.07 583.52C376.07 583.52 376.07 583.52 376.07 583.52C308.79 583.52 271.42 583.52 263.94 583.52C263.94 583.52 263.94 583.52 263.94 583.52C263.94 552.66 263.94 535.52 263.94 532.09C263.94 532.09 263.94 532.09 263.94 532.09C331.22 532.09 368.6 532.09 376.07 532.09Z" id="a3WMceTZD"></path><path d="M298.67 532.09C298.67 532.09 298.67 532.09 298.67 532.09C298.67 562.95 298.67 580.09 298.67 583.52C298.67 583.52 298.67 583.52 298.67 583.52C277.83 583.52 266.26 583.52 263.94 583.52C263.94 583.52 263.94 583.52 263.94 583.52C263.94 552.66 263.94 535.52 263.94 532.09C263.94 532.09 263.94 532.09 263.94 532.09C284.78 532.09 296.35 532.09 298.67 532.09Z" id="h3VlklJBcm"></path><path d="M493.58 56.48L146.42 56.48L106.76 83.55L106.76 249.94L146.42 277.01L493.58 277.01L533.24 249.94L533.24 83.55L493.58 56.48Z" id="b2VxkBTWpE"></path><path d="M106.76 83.55L106.76 249.94L146.42 277.01L146.42 56.48L106.76 83.55Z" id="b5WAg47oWz"></path><path d="M493.58 56.48C493.58 56.48 493.58 56.48 493.58 56.48C493.58 188.8 493.58 262.3 493.58 277.01C493.58 277.01 493.58 277.01 493.58 277.01C285.28 277.01 169.56 277.01 146.42 277.01C146.42 277.01 146.42 277.01 146.42 277.01C146.42 144.69 146.42 71.18 146.42 56.48C146.42 56.48 146.42 56.48 146.42 56.48C354.72 56.48 470.43 56.48 493.58 56.48Z" id="alLUduUCs"></path><path d="M162.65 277.01L146.42 277.01L146.42 253.66L343.59 56.48L383.18 56.48L162.65 277.01Z" id="a1TGaaRESd"></path><path d="M493.58 91.03L307.6 277.01L206.13 277.01L426.66 56.48L493.58 56.48L493.58 91.03Z" id="b1a6UuN11d"></path><path d="M361.19 154.79C359.03 154.33 348.25 152.04 328.83 147.92C335.78 115.22 339.64 97.06 340.41 93.43C340.91 91.09 339.82 88.74 337.78 87.8C335.72 86.85 333.34 87.59 332 89.53C326.4 97.67 281.66 162.71 276.07 170.84C275.1 172.23 274.86 174.04 275.42 175.62C275.97 177.21 277.25 178.37 278.81 178.7C280.97 179.16 291.75 181.45 311.17 185.58C304.22 218.27 300.36 236.44 299.58 240.07C299.09 242.41 300.18 244.75 302.21 245.69C302.52 245.83 302.84 245.94 303.15 246C304.95 246.39 306.86 245.62 308 243.96C313.6 235.83 358.34 170.79 363.93 162.66C364.89 161.25 365.14 159.46 364.58 157.87C364.03 156.28 362.75 155.12 361.19 154.79Z" id="aimQwHlD6"></path></defs><g><g><g><use xlink:href="#b3WAJ4HVRv" opacity="1" fill="#d88948" fill-opacity="1"></use><g><use xlink:href="#b3WAJ4HVRv" opacity="1" fill-opacity="0" stroke="#000000" stroke-width="1" stroke-opacity="0"></use></g></g><g><use xlink:href="#aEhiUbsTU" opacity="1" fill="#c4783f" fill-opacity="1"></use><g><use xlink:href="#aEhiUbsTU" opacity="1" fill-opacity="0" stroke="#000000" stroke-width="1" stroke-opacity="0"></use></g></g><g><use xlink:href="#a3WMceTZD" opacity="1" fill="#efbb6a" fill-opacity="1"></use><g><use xlink:href="#a3WMceTZD" opacity="1" fill-opacity="0" stroke="#000000" stroke-width="1" stroke-opacity="0"></use></g></g><g><use xlink:href="#h3VlklJBcm" opacity="1" fill="#d89f55" fill-opacity="1"></use><g><use xlink:href="#h3VlklJBcm" opacity="1" fill-opacity="0" stroke="#000000" stroke-width="1" stroke-opacity="0"></use></g></g><g><use xlink:href="#b2VxkBTWpE" opacity="1" fill="#fccf51" fill-opacity="1"></use><g><use xlink:href="#b2VxkBTWpE" opacity="1" fill-opacity="0" stroke="#000000" stroke-width="1" stroke-opacity="0"></use></g></g><g><use xlink:href="#b5WAg47oWz" opacity="1" fill="#c8960c" fill-opacity="1"></use><g><use xlink:href="#b5WAg47oWz" opacity="1" fill-opacity="0" stroke="#000000" stroke-width="1" stroke-opacity="0"></use></g></g><g><use xlink:href="#alLUduUCs" opacity="1" fill="#fcba03" fill-opacity="1"></use><g><use xlink:href="#alLUduUCs" opacity="1" fill-opacity="0" stroke="#000000" stroke-width="1" stroke-opacity="0"></use></g></g><g><use xlink:href="#a1TGaaRESd" opacity="1" fill="#fccf51" fill-opacity="1"></use><g><use xlink:href="#a1TGaaRESd" opacity="1" fill-opacity="0" stroke="#000000" stroke-width="1" stroke-opacity="0"></use></g></g><g><use xlink:href="#b1a6UuN11d" opacity="1" fill="#fccf51" fill-opacity="1"></use><g><use xlink:href="#b1a6UuN11d" opacity="1" fill-opacity="0" stroke="#000000" stroke-width="1" stroke-opacity="0"></use></g></g><g><use xlink:href="#aimQwHlD6" opacity="1" fill="#fcba03" fill-opacity="1"></use><g><use xlink:href="#aimQwHlD6" opacity="1" fill-opacity="0" stroke="#424242" stroke-width="9" stroke-opacity="1"></use></g></g></g></g></svg>