<?xml version="1.0" encoding="UTF-8" standalone="no"?>
<!DOCTYPE svg PUBLIC "-//W3C//DTD SVG 1.1//EN" "http://www.w3.org/Graphics/SVG/1.1/DTD/svg11.dtd">
<svg version="1.1" xmlns="http://www.w3.org/2000/svg" xmlns:xlink="http://www.w3.org/1999/xlink" preserveAspectRatio="xMidYMid meet" viewBox="0 0 640 640" width="640" height="640"><defs><path d="M352.38 524.7C361.04 524.7 368.04 517.7 368.04 509.04C368.04 497.29 368.04 438.57 368.04 332.87L353.75 305.62L336.71 341.82L336.71 509.04C341.38 519.48 346.6 524.7 352.38 524.7Z" id="bgvZgpFnn"></path><path d="M571.7 462.04C580.36 462.04 587.37 455.03 587.37 446.37C587.37 434.63 587.37 375.91 587.37 270.2L572.48 243.12L556.04 279.16L556.04 446.37C560.71 456.82 565.93 462.04 571.7 462.04Z" id="a2kE63c1hk"></path><path d="M227.05 305.38C218.27 305.38 211.38 298.48 211.38 289.71C211.38 280.94 218.27 274.05 227.05 274.05C253.05 274.05 274.05 253.05 274.05 227.05C274.05 212.01 267.15 198.22 254.93 189.13C229.87 170.96 201.25 147.67 179 119.79C179 144.61 179 343.22 179 368.04C179 376.81 172.11 383.71 163.34 383.71C154.56 383.71 147.67 376.81 147.67 368.04C147.67 338.07 147.67 98.27 147.67 68.3C147.67 61.4 152.06 55.45 158.64 53.26C160.21 52.94 161.77 52.63 163.34 52.63C168.35 52.63 173.37 55.14 176.5 59.52C178.28 62.25 192.57 84.06 194.36 86.78C215.04 117.49 245.22 143.08 273.42 163.76C293.47 178.48 305.38 202.29 305.38 227.05C305.38 270.29 270.29 305.38 227.05 305.38Z" id="dWIm29kRt"></path><path d="M227.05 305.38C218.27 305.38 211.38 298.48 211.38 289.71C211.38 280.94 218.27 274.05 227.05 274.05C253.05 274.05 274.05 253.05 274.05 227.05C274.05 212.01 267.15 198.22 254.93 189.13C229.87 170.96 201.25 147.67 179 119.79C179 144.61 179 343.22 179 368.04C179 376.81 172.11 383.71 163.34 383.71C163.34 350.6 163.34 85.74 163.34 52.63C168.35 52.63 173.37 55.14 176.5 59.52C178.28 62.25 192.57 84.06 194.36 86.78C215.04 117.49 245.22 143.08 273.42 163.76C293.47 178.48 305.38 202.29 305.38 227.05C305.38 270.29 270.29 305.38 227.05 305.38Z" id="a10PCMcoKV"></path><path d="M242.71 524.7C242.71 490.14 270.82 462.04 305.38 462.04C339.94 462.04 368.04 490.14 368.04 524.7C368.04 559.26 339.94 587.37 305.38 587.37C270.82 587.37 242.71 559.26 242.71 524.7Z" id="bsThdoGkq"></path><path d="M116.34 305.38C81.88 305.38 52.63 333.58 52.63 368.04C52.63 402.51 81.88 430.71 116.34 430.71C135.14 430.71 152.06 422.25 163.34 409.09C173.37 398.12 179 383.71 179 368.04C179 352.38 173.37 337.96 163.34 327C152.06 313.84 135.14 305.38 116.34 305.38Z" id="c7so8JJqKI"></path><path d="M462.04 462.04C462.04 427.48 490.14 399.38 524.7 399.38C559.26 399.38 587.37 427.48 587.37 462.04C587.37 496.6 559.26 524.7 524.7 524.7C490.14 524.7 462.04 496.6 462.04 462.04Z" id="cg3SQuye2"></path><path d="M163.34 409.09C163.34 400.88 163.34 335.21 163.34 327C173.37 337.96 179 352.38 179 368.04C179 383.71 173.37 398.12 163.34 409.09Z" id="d84EGXW3U"></path><path d="M567.32 180.67C560.3 182.68 525.21 192.71 462.04 210.75C393.61 230.3 355.59 241.17 347.99 243.34C341.41 245.22 336.71 251.48 336.71 258.38C336.71 263.94 336.71 291.72 336.71 341.72L368.04 332.95L462.04 306L556.04 279.06L587.37 270.29C587.37 225.54 587.37 200.69 587.37 195.72C587.37 190.7 585.18 186.32 581.1 183.18C577.34 180.36 572.02 179.42 567.32 180.67Z" id="bOPLHrFan"></path><path d="M587.37 270.29L556.04 279.06L462.04 306L462.04 210.75C525.21 192.71 560.3 182.68 567.32 180.67C572.02 179.42 577.34 180.36 581.1 183.18C585.18 186.32 587.37 190.7 587.37 195.72C587.37 205.66 587.37 230.52 587.37 270.29Z" id="adIkr0E9y"></path></defs><g><g><g><use xlink:href="#bgvZgpFnn" opacity="1" fill="#ff8700" fill-opacity="1"></use><g><use xlink:href="#bgvZgpFnn" opacity="1" fill-opacity="0" stroke="#000000" stroke-width="1" stroke-opacity="0"></use></g></g><g><use xlink:href="#a2kE63c1hk" opacity="1" fill="#fdbf00" fill-opacity="1"></use><g><use xlink:href="#a2kE63c1hk" opacity="1" fill-opacity="0" stroke="#000000" stroke-width="1" stroke-opacity="0"></use></g></g><g><use xlink:href="#dWIm29kRt" opacity="1" fill="#fea832" fill-opacity="1"></use><g><use xlink:href="#dWIm29kRt" opacity="1" fill-opacity="0" stroke="#000000" stroke-width="1" stroke-opacity="0"></use></g></g><g><use xlink:href="#a10PCMcoKV" opacity="1" fill="#ff8700" fill-opacity="1"></use><g><use xlink:href="#a10PCMcoKV" opacity="1" fill-opacity="0" stroke="#000000" stroke-width="1" stroke-opacity="0"></use></g></g><g><use xlink:href="#bsThdoGkq" opacity="1" fill="#ffd400" fill-opacity="1"></use><g><use xlink:href="#bsThdoGkq" opacity="1" fill-opacity="0" stroke="#000000" stroke-width="1" stroke-opacity="0"></use></g></g><g><use xlink:href="#c7so8JJqKI" opacity="1" fill="#ffd400" fill-opacity="1"></use><g><use xlink:href="#c7so8JJqKI" opacity="1" fill-opacity="0" stroke="#000000" stroke-width="1" stroke-opacity="0"></use></g></g><g><use xlink:href="#cg3SQuye2" opacity="1" fill="#ff8700" fill-opacity="1"></use><g><use xlink:href="#cg3SQuye2" opacity="1" fill-opacity="0" stroke="#000000" stroke-width="1" stroke-opacity="0"></use></g></g><g><use xlink:href="#d84EGXW3U" opacity="1" fill="#fdbf00" fill-opacity="1"></use><g><use xlink:href="#d84EGXW3U" opacity="1" fill-opacity="0" stroke="#000000" stroke-width="1" stroke-opacity="0"></use></g></g><g><use xlink:href="#bOPLHrFan" opacity="1" fill="#fea832" fill-opacity="1"></use><g><use xlink:href="#bOPLHrFan" opacity="1" fill-opacity="0" stroke="#000000" stroke-width="1" stroke-opacity="0"></use></g></g><g><use xlink:href="#adIkr0E9y" opacity="1" fill="#ff8700" fill-opacity="1"></use><g><use xlink:href="#adIkr0E9y" opacity="1" fill-opacity="0" stroke="#000000" stroke-width="1" stroke-opacity="0"></use></g></g></g></g></svg>