<?xml version="1.0" encoding="UTF-8" standalone="no"?>
<!DOCTYPE svg PUBLIC "-//W3C//DTD SVG 1.1//EN" "http://www.w3.org/Graphics/SVG/1.1/DTD/svg11.dtd">
<svg version="1.1" xmlns="http://www.w3.org/2000/svg" xmlns:xlink="http://www.w3.org/1999/xlink" preserveAspectRatio="xMidYMid meet" viewBox="0 0 640 640" width="640" height="640"><defs><path d="M275 531C275 555.85 295.15 576 320 576C344.85 576 365 555.85 365 531C365 506.15 344.85 486 320 486C295.15 486 275 506.15 275 531Z" id="a3yfhikNl"></path><path d="M320 486C320 495 320 567 320 576C344.85 576 365 555.85 365 531C365 506.15 344.85 486 320 486Z" id="ajbvN4hhi"></path><path d="M275 109C275 138.9 275 378.1 275 408C275 432.85 295.15 453 320 453C344.85 453 365 432.85 365 408C365 378.1 365 138.9 365 109C365 84.15 344.85 64 320 64C295.15 64 275 84.15 275 109Z" id="bcNgcdwMt"></path><path d="M365 109C365 84.15 344.85 64 320 64C320 102.9 320 414.1 320 453C344.85 453 365 432.85 365 408C365 348.2 365 138.9 365 109Z" id="cdyGuo9s7"></path></defs><g><g><g><use xlink:href="#a3yfhikNl" opacity="1" fill="#fccf51" fill-opacity="1"></use><g><use xlink:href="#a3yfhikNl" opacity="1" fill-opacity="0" stroke="#000000" stroke-width="1" stroke-opacity="0"></use></g></g><g><use xlink:href="#ajbvN4hhi" opacity="1" fill="#fcba03" fill-opacity="1"></use><g><use xlink:href="#ajbvN4hhi" opacity="1" fill-opacity="0" stroke="#000000" stroke-width="1" stroke-opacity="0"></use></g></g><g><use xlink:href="#bcNgcdwMt" opacity="1" fill="#fccf51" fill-opacity="1"></use><g><use xlink:href="#bcNgcdwMt" opacity="1" fill-opacity="0" stroke="#000000" stroke-width="1" stroke-opacity="0"></use></g></g><g><use xlink:href="#cdyGuo9s7" opacity="1" fill="#fcba03" fill-opacity="1"></use><g><use xlink:href="#cdyGuo9s7" opacity="1" fill-opacity="0" stroke="#000000" stroke-width="1" stroke-opacity="0"></use></g></g></g></g></svg>