<?xml version="1.0" encoding="UTF-8" standalone="no"?>
<!DOCTYPE svg PUBLIC "-//W3C//DTD SVG 1.1//EN" "http://www.w3.org/Graphics/SVG/1.1/DTD/svg11.dtd">
<svg version="1.1" xmlns="http://www.w3.org/2000/svg" xmlns:xlink="http://www.w3.org/1999/xlink" preserveAspectRatio="xMidYMid meet" viewBox="0 0 640 640" width="640" height="640"><defs><path d="M64 530.89C64 518.83 68.69 507.5 77.22 498.98C110.2 465.99 374.09 202.1 407.08 169.12C412.94 163.26 422.43 163.26 428.29 169.12C432.55 173.38 466.63 207.46 470.9 211.72C473.71 214.53 475.29 218.35 475.29 222.33C475.29 226.3 473.71 230.12 470.9 232.93C437.91 265.92 174.02 529.81 141.03 562.79C132.24 571.59 120.68 575.99 109.12 575.99C97.57 575.99 86.01 571.59 77.22 562.79C68.69 554.27 64 542.94 64 530.89Z" id="aESOfIZYf"></path><path d="M470.9 211.72C473.71 214.53 475.29 218.35 475.29 222.33C475.29 226.3 473.71 230.12 470.9 232.93C437.91 265.92 174.02 529.81 141.03 562.79C132.24 571.59 120.68 575.99 109.12 575.99C97.57 575.99 86.01 571.59 77.22 562.79C102.04 537.97 226.17 413.84 449.59 190.42C460.95 201.78 468.05 208.88 470.9 211.72Z" id="b1HJdDM76P"></path><path d="M380.25 64.01C272.14 64.01 184.5 151.65 184.5 259.76C184.5 367.87 272.14 455.51 380.25 455.51C488.36 455.51 576 367.87 576 259.76C576 151.65 488.36 64.01 380.25 64.01Z" id="b6ZD99RVXV"></path><path d="M518.6 121.41C554.05 156.86 576 205.79 576 259.76C576 367.7 488.19 455.51 380.25 455.51C326.28 455.51 277.34 433.56 241.9 398.11C297.24 342.77 463.26 176.75 518.6 121.41Z" id="a7fsc14xa"></path><path d="M380.25 124.26C305.42 124.26 244.75 184.93 244.75 259.76C244.75 334.6 305.42 395.26 380.25 395.26C455.08 395.26 515.75 334.6 515.75 259.76C515.75 184.93 455.08 124.26 380.25 124.26Z" id="aybvs7blz"></path><path d="M284.48 355.53C303.64 336.38 456.86 183.15 476.02 163.99C500.55 188.53 515.75 222.4 515.75 259.76C515.75 334.48 454.97 395.26 380.25 395.26C342.89 395.26 309.02 380.07 284.48 355.53Z" id="aNmw9l1jS"></path></defs><g><g><g><use xlink:href="#aESOfIZYf" opacity="1" fill="#464b52" fill-opacity="1"></use><g><use xlink:href="#aESOfIZYf" opacity="1" fill-opacity="0" stroke="#000000" stroke-width="1" stroke-opacity="0"></use></g></g><g><use xlink:href="#b1HJdDM76P" opacity="1" fill="#292b2f" fill-opacity="1"></use><g><use xlink:href="#b1HJdDM76P" opacity="1" fill-opacity="0" stroke="#000000" stroke-width="1" stroke-opacity="0"></use></g></g><g><use xlink:href="#b6ZD99RVXV" opacity="1" fill="#76cefb" fill-opacity="1"></use><g><use xlink:href="#b6ZD99RVXV" opacity="1" fill-opacity="0" stroke="#000000" stroke-width="1" stroke-opacity="0"></use></g></g><g><use xlink:href="#a7fsc14xa" opacity="1" fill="#6897f4" fill-opacity="1"></use><g><use xlink:href="#a7fsc14xa" opacity="1" fill-opacity="0" stroke="#000000" stroke-width="1" stroke-opacity="0"></use></g></g><g><use xlink:href="#aybvs7blz" opacity="1" fill="#e1faff" fill-opacity="1"></use><g><use xlink:href="#aybvs7blz" opacity="1" fill-opacity="0" stroke="#000000" stroke-width="1" stroke-opacity="0"></use></g></g><g><use xlink:href="#aNmw9l1jS" opacity="1" fill="#c7f5ff" fill-opacity="1"></use><g><use xlink:href="#aNmw9l1jS" opacity="1" fill-opacity="0" stroke="#000000" stroke-width="1" stroke-opacity="0"></use></g></g></g></g></svg>