<?xml version="1.0" encoding="UTF-8" standalone="no"?>
<!DOCTYPE svg PUBLIC "-//W3C//DTD SVG 1.1//EN" "http://www.w3.org/Graphics/SVG/1.1/DTD/svg11.dtd">
<svg version="1.1" xmlns="http://www.w3.org/2000/svg" xmlns:xlink="http://www.w3.org/1999/xlink" preserveAspectRatio="xMidYMid meet" viewBox="0 0 640 640" width="640" height="640"><defs><path d="M415.35 394.16L415.35 245.84C498 245.84 543.91 245.84 553.09 245.84C558.94 245.84 563.68 241.09 563.68 235.24C563.68 229.39 558.94 224.64 553.09 224.64C543.91 224.64 498 224.64 415.35 224.64C415.35 142 415.35 96.09 415.35 86.91C415.35 81.06 410.61 76.32 404.76 76.32C398.91 76.32 394.16 81.06 394.16 86.91C394.16 96.09 394.16 142 394.16 224.65L245.84 224.65C245.84 142 245.84 96.09 245.84 86.91C245.84 81.06 241.09 76.32 235.24 76.32C229.39 76.32 224.64 81.06 224.64 86.91C224.64 96.09 224.64 142 224.64 224.65C142 224.65 96.09 224.65 86.91 224.65C81.06 224.64 76.32 229.39 76.32 235.24C76.32 241.09 81.06 245.84 86.91 245.84C96.09 245.84 142 245.84 224.65 245.84L224.65 394.16C142 394.16 96.09 394.16 86.91 394.16C81.06 394.16 76.32 398.91 76.32 404.76C76.32 410.61 81.06 415.36 86.91 415.36C96.09 415.36 142 415.36 224.65 415.36C224.65 498 224.65 543.91 224.65 553.09C224.65 558.94 229.39 563.68 235.24 563.68C241.09 563.68 245.84 558.94 245.84 553.09C245.84 543.91 245.84 498 245.84 415.35L394.16 415.35C394.16 498 394.16 543.91 394.16 553.09C394.16 558.94 398.91 563.68 404.76 563.68C410.61 563.68 415.36 558.94 415.36 553.09C415.36 543.91 415.36 498 415.36 415.35C498 415.35 543.91 415.35 553.09 415.35C558.94 415.35 563.68 410.61 563.68 404.76C563.68 398.91 558.94 394.16 553.09 394.16C534.72 394.16 488.81 394.16 415.35 394.16ZM245.84 245.84L394.16 245.84L394.16 394.16L245.84 394.16L245.84 245.84Z" id="cxxmpoI85"></path><path d="M150.48 97.51C121.22 97.51 97.51 121.22 97.51 150.48C97.51 179.74 121.22 203.46 150.48 203.46C179.74 203.46 203.46 179.74 203.46 150.48C203.46 121.22 179.74 97.51 150.48 97.51Z" id="b1gYwvCoGy"></path><path d="M489.52 267.03C460.26 267.03 436.54 290.74 436.54 320C436.54 349.26 460.26 372.97 489.52 372.97C518.78 372.97 542.49 349.26 542.49 320C542.49 290.74 518.78 267.03 489.52 267.03Z" id="c2Eyxmhs01"></path><path d="M320 436.54C290.74 436.54 267.03 460.26 267.03 489.52C267.03 518.78 290.74 542.49 320 542.49C349.26 542.49 372.97 518.78 372.97 489.52C372.97 460.26 349.26 436.54 320 436.54Z" id="a1j8hCdcY"></path><path d="M354.9 270.12C352.57 272.45 340.94 284.08 320 305.02C299.07 284.08 287.45 272.45 285.12 270.12C280.91 266.05 274.2 266.17 270.14 270.38C266.17 274.49 266.17 280.99 270.14 285.1C272.46 287.43 284.09 299.06 305.02 320C284.08 340.93 272.44 352.55 270.12 354.88C265.91 358.94 265.79 365.65 269.86 369.86C273.92 374.07 280.63 374.19 284.84 370.12C284.93 370.03 285.01 369.95 285.1 369.86C287.43 367.53 299.06 355.91 320 334.98C340.93 355.91 352.55 367.53 354.88 369.86C359.09 373.92 365.79 373.81 369.86 369.6C373.83 365.49 373.83 358.98 369.86 354.88C367.53 352.55 355.91 340.93 334.98 320C355.91 299.07 367.53 287.45 369.86 285.12C374.01 281 374.03 274.29 369.9 270.14C369.89 270.13 369.89 270.13 369.88 270.12C365.74 265.98 359.04 265.98 354.9 270.12Z" id="cUlXfbsK"></path><path d="M185.38 439.64C183.05 441.96 171.42 453.6 150.48 474.54C129.55 453.6 117.93 441.96 115.6 439.64C111.39 435.57 104.68 435.69 100.62 439.9C96.65 444 96.65 450.51 100.62 454.62C102.94 456.95 114.57 468.58 135.5 489.52C114.56 510.45 102.93 522.07 100.6 524.4C96.39 528.46 96.27 535.17 100.34 539.38C104.4 543.59 111.11 543.7 115.32 539.64C115.41 539.55 115.5 539.47 115.58 539.38C117.91 537.05 129.54 525.43 150.48 504.5C171.41 525.43 183.03 537.05 185.36 539.38C189.43 543.59 196.13 543.7 200.34 539.64C204.55 535.57 204.67 528.87 200.6 524.66C200.52 524.57 200.43 524.48 200.34 524.4C198.02 522.07 186.39 510.45 165.46 489.52C186.39 468.59 198.02 456.97 200.34 454.64C204.49 450.51 204.51 443.81 200.38 439.66C200.37 439.65 200.37 439.64 200.36 439.64C196.22 435.5 189.52 435.5 185.38 439.64Z" id="b2Xmt8kaDD"></path><path d="M539.38 115.6C543.59 111.54 543.7 104.83 539.64 100.62C535.57 96.41 528.87 96.3 524.66 100.36C524.57 100.45 524.48 100.53 524.4 100.62C522.07 102.95 510.45 114.57 489.52 135.5C468.59 114.56 456.97 102.93 454.64 100.6C450.43 96.53 443.72 96.65 439.66 100.86C435.69 104.97 435.69 111.47 439.66 115.58C441.98 117.91 453.61 129.54 474.54 150.48C453.6 171.41 441.96 183.03 439.64 185.36C435.43 189.43 435.31 196.13 439.38 200.34C443.44 204.55 450.15 204.67 454.36 200.6C454.45 200.52 454.53 200.43 454.62 200.34C456.95 198.02 468.58 186.39 489.52 165.46C510.45 186.39 522.07 198.02 524.4 200.34C528.46 204.55 535.17 204.67 539.38 200.6C543.59 196.54 543.7 189.83 539.64 185.62C539.55 185.53 539.47 185.44 539.38 185.36C537.05 183.03 525.43 171.41 504.5 150.48C525.43 129.55 537.05 117.93 539.38 115.6Z" id="bVBBDC84E"></path><path d="M86.91 245.84C81.06 245.84 76.32 241.09 76.32 235.24C76.32 229.39 81.06 224.64 86.91 224.64C133.53 224.64 506.47 224.64 553.09 224.64C558.94 224.64 563.68 229.39 563.68 235.24C563.68 241.09 558.94 245.84 553.09 245.84C459.85 245.84 133.53 245.84 86.91 245.84Z" id="g4mDjzBmZ"></path><path d="M86.91 415.35C81.06 415.35 76.32 410.61 76.32 404.76C76.32 398.91 81.06 394.16 86.91 394.16C133.53 394.16 506.47 394.16 553.09 394.16C558.94 394.16 563.68 398.91 563.68 404.76C563.68 410.61 558.94 415.35 553.09 415.35C459.85 415.35 133.53 415.35 86.91 415.35Z" id="azC0f2E2u"></path><path d="M224.64 553.09C224.64 506.47 224.64 133.53 224.64 86.91C224.64 81.06 229.39 76.32 235.24 76.32C241.09 76.32 245.84 81.06 245.84 86.91C245.84 133.53 245.84 506.47 245.84 553.09C245.84 558.94 241.09 563.68 235.24 563.68C229.39 563.68 224.64 558.94 224.64 553.09Z" id="fqq8l2lNh"></path><path d="M394.16 553.09C394.16 506.47 394.16 133.53 394.16 86.91C394.16 81.06 398.91 76.32 404.76 76.32C410.61 76.32 415.36 81.06 415.36 86.91C415.36 133.53 415.36 506.47 415.36 553.09C415.35 558.94 410.61 563.68 404.76 563.68C398.91 563.68 394.16 558.94 394.16 553.09Z" id="ahEkKyPMw"></path><path d="M97.51 150.48C97.51 121.22 121.22 97.51 150.48 97.51C179.74 97.51 203.46 121.22 203.46 150.48C203.46 179.74 179.74 203.46 150.48 203.46C121.22 203.46 97.51 179.74 97.51 150.48ZM118.7 150.48C118.7 168.04 132.93 182.27 150.48 182.27C168.04 182.27 182.27 168.04 182.27 150.48C182.27 132.93 168.04 118.7 150.48 118.7C132.93 118.7 118.7 132.93 118.7 150.48Z" id="e3NwsO8Sq"></path><path d="M436.54 320C436.54 290.74 460.26 267.03 489.52 267.03C518.78 267.03 542.49 290.74 542.49 320C542.49 349.26 518.78 372.97 489.52 372.97C460.26 372.97 436.54 349.26 436.54 320ZM457.73 320C457.73 337.55 471.96 351.78 489.52 351.78C507.07 351.78 521.3 337.55 521.3 320C521.3 302.45 507.07 288.21 489.52 288.21C471.96 288.21 457.73 302.45 457.73 320Z" id="k8867P2v"></path><path d="M267.03 489.52C267.03 460.26 290.74 436.54 320 436.54C349.26 436.54 372.97 460.26 372.97 489.52C372.97 518.78 349.26 542.49 320 542.49C290.74 542.49 267.03 518.78 267.03 489.52ZM288.21 489.52C288.21 507.07 302.45 521.3 320 521.3C337.55 521.3 351.78 507.07 351.78 489.52C351.78 471.96 337.55 457.73 320 457.73C302.45 457.73 288.21 471.96 288.21 489.52Z" id="aAnyK7ZTr"></path><path d="M267.01 362.4C267 359.58 268.12 356.87 270.12 354.88C278.6 346.4 346.4 278.6 354.88 270.12C359.09 266.05 365.79 266.17 369.86 270.38C373.83 274.49 373.83 280.99 369.86 285.1C361.38 293.58 293.58 361.38 285.1 369.86C283.12 371.85 280.43 372.97 277.62 372.97C271.77 372.99 267.02 368.25 267.01 362.4Z" id="i1zegxik5V"></path><path d="M354.88 369.88C346.4 361.4 278.6 293.6 270.12 285.12C266.05 280.91 266.17 274.21 270.38 270.14C274.49 266.17 280.99 266.17 285.1 270.14C293.58 278.62 361.38 346.42 369.86 354.9C373.99 359.04 373.98 365.75 369.84 369.88C367.86 371.86 365.18 372.97 362.38 372.97C359.57 372.98 356.87 371.87 354.88 369.88Z" id="a2XfxqUToO"></path><path d="M185.36 539.4C176.88 530.92 109.08 463.12 100.6 454.64C96.53 450.43 96.65 443.72 100.86 439.66C104.97 435.69 111.47 435.69 115.58 439.66C124.06 448.13 191.86 515.94 200.34 524.42C204.47 528.56 204.46 535.27 200.32 539.4C198.34 541.38 195.66 542.49 192.86 542.49C190.05 542.5 187.35 541.39 185.36 539.4Z" id="cm9eYjLa"></path><path d="M97.49 531.92C97.48 529.1 98.6 526.39 100.6 524.4C109.08 515.92 176.88 448.11 185.36 439.64C189.57 435.57 196.27 435.69 200.34 439.9C204.31 444 204.31 450.51 200.34 454.62C191.86 463.1 124.06 530.9 115.58 539.38C113.6 541.37 110.91 542.49 108.1 542.49C102.25 542.5 97.5 537.77 97.49 531.92Z" id="a3GHXh6mq"></path><path d="M436.52 192.88C436.52 190.06 437.64 187.35 439.64 185.36C448.11 176.88 515.92 109.08 524.4 100.6C528.46 96.39 535.17 96.27 539.38 100.34C543.59 104.4 543.7 111.11 539.64 115.32C539.55 115.41 539.47 115.5 539.38 115.58C530.9 124.06 463.1 191.86 454.62 200.34C452.64 202.33 449.95 203.45 447.14 203.46C441.29 203.47 436.54 198.73 436.52 192.88Z" id="b8mp0f3eo9"></path><path d="M524.4 200.36C515.92 191.89 448.11 124.08 439.64 115.6C435.57 111.39 435.69 104.69 439.9 100.62C444.01 96.65 450.51 96.65 454.62 100.62C463.1 109.1 530.9 176.9 539.38 185.38C543.51 189.52 543.5 196.23 539.36 200.36C537.38 202.34 534.7 203.45 531.9 203.46C529.09 203.46 526.39 202.35 524.4 200.36Z" id="g3Xx4KD0c"></path></defs><g><g><g><use xlink:href="#cxxmpoI85" opacity="1" fill="#607d8b" fill-opacity="1"></use><g><use xlink:href="#cxxmpoI85" opacity="1" fill-opacity="0" stroke="#000000" stroke-width="1" stroke-opacity="0"></use></g></g><g><use xlink:href="#b1gYwvCoGy" opacity="1" fill="#ffc107" fill-opacity="1"></use><g><use xlink:href="#b1gYwvCoGy" opacity="1" fill-opacity="0" stroke="#000000" stroke-width="1" stroke-opacity="0"></use></g></g><g><use xlink:href="#c2Eyxmhs01" opacity="1" fill="#ffc107" fill-opacity="1"></use><g><use xlink:href="#c2Eyxmhs01" opacity="1" fill-opacity="0" stroke="#000000" stroke-width="1" stroke-opacity="0"></use></g></g><g><use xlink:href="#a1j8hCdcY" opacity="1" fill="#ffc107" fill-opacity="1"></use><g><use xlink:href="#a1j8hCdcY" opacity="1" fill-opacity="0" stroke="#000000" stroke-width="1" stroke-opacity="0"></use></g></g><g><use xlink:href="#cUlXfbsK" opacity="1" fill="#009688" fill-opacity="1"></use><g><use xlink:href="#cUlXfbsK" opacity="1" fill-opacity="0" stroke="#000000" stroke-width="1" stroke-opacity="0"></use></g></g><g><use xlink:href="#b2Xmt8kaDD" opacity="1" fill="#009688" fill-opacity="1"></use><g><use xlink:href="#b2Xmt8kaDD" opacity="1" fill-opacity="0" stroke="#000000" stroke-width="1" stroke-opacity="0"></use></g></g><g><use xlink:href="#bVBBDC84E" opacity="1" fill="#009688" fill-opacity="1"></use><g><use xlink:href="#bVBBDC84E" opacity="1" fill-opacity="0" stroke="#000000" stroke-width="1" stroke-opacity="0"></use></g></g><g><use xlink:href="#g4mDjzBmZ" opacity="1" fill="#000000" fill-opacity="1"></use><g><use xlink:href="#g4mDjzBmZ" opacity="1" fill-opacity="0" stroke="#000000" stroke-width="1" stroke-opacity="0"></use></g></g><g><use xlink:href="#azC0f2E2u" opacity="1" fill="#000000" fill-opacity="1"></use><g><use xlink:href="#azC0f2E2u" opacity="1" fill-opacity="0" stroke="#000000" stroke-width="1" stroke-opacity="0"></use></g></g><g><use xlink:href="#fqq8l2lNh" opacity="1" fill="#000000" fill-opacity="1"></use><g><use xlink:href="#fqq8l2lNh" opacity="1" fill-opacity="0" stroke="#000000" stroke-width="1" stroke-opacity="0"></use></g></g><g><use xlink:href="#ahEkKyPMw" opacity="1" fill="#000000" fill-opacity="1"></use><g><use xlink:href="#ahEkKyPMw" opacity="1" fill-opacity="0" stroke="#000000" stroke-width="1" stroke-opacity="0"></use></g></g><g><use xlink:href="#e3NwsO8Sq" opacity="1" fill="#000000" fill-opacity="1"></use><g><use xlink:href="#e3NwsO8Sq" opacity="1" fill-opacity="0" stroke="#000000" stroke-width="1" stroke-opacity="0"></use></g></g><g><use xlink:href="#k8867P2v" opacity="1" fill="#000000" fill-opacity="1"></use><g><use xlink:href="#k8867P2v" opacity="1" fill-opacity="0" stroke="#000000" stroke-width="1" stroke-opacity="0"></use></g></g><g><use xlink:href="#aAnyK7ZTr" opacity="1" fill="#000000" fill-opacity="1"></use><g><use xlink:href="#aAnyK7ZTr" opacity="1" fill-opacity="0" stroke="#000000" stroke-width="1" stroke-opacity="0"></use></g></g><g><use xlink:href="#i1zegxik5V" opacity="1" fill="#000000" fill-opacity="1"></use><g><use xlink:href="#i1zegxik5V" opacity="1" fill-opacity="0" stroke="#000000" stroke-width="1" stroke-opacity="0"></use></g></g><g><use xlink:href="#a2XfxqUToO" opacity="1" fill="#000000" fill-opacity="1"></use><g><use xlink:href="#a2XfxqUToO" opacity="1" fill-opacity="0" stroke="#000000" stroke-width="1" stroke-opacity="0"></use></g></g><g><use xlink:href="#cm9eYjLa" opacity="1" fill="#000000" fill-opacity="1"></use><g><use xlink:href="#cm9eYjLa" opacity="1" fill-opacity="0" stroke="#000000" stroke-width="1" stroke-opacity="0"></use></g></g><g><use xlink:href="#a3GHXh6mq" opacity="1" fill="#000000" fill-opacity="1"></use><g><use xlink:href="#a3GHXh6mq" opacity="1" fill-opacity="0" stroke="#000000" stroke-width="1" stroke-opacity="0"></use></g></g><g><use xlink:href="#b8mp0f3eo9" opacity="1" fill="#000000" fill-opacity="1"></use><g><use xlink:href="#b8mp0f3eo9" opacity="1" fill-opacity="0" stroke="#000000" stroke-width="1" stroke-opacity="0"></use></g></g><g><use xlink:href="#g3Xx4KD0c" opacity="1" fill="#000000" fill-opacity="1"></use><g><use xlink:href="#g3Xx4KD0c" opacity="1" fill-opacity="0" stroke="#000000" stroke-width="1" stroke-opacity="0"></use></g></g></g></g></svg>