<?xml version="1.0" encoding="UTF-8" standalone="no"?>
<!DOCTYPE svg PUBLIC "-//W3C//DTD SVG 1.1//EN" "http://www.w3.org/Graphics/SVG/1.1/DTD/svg11.dtd">
<svg version="1.1" xmlns="http://www.w3.org/2000/svg" xmlns:xlink="http://www.w3.org/1999/xlink" preserveAspectRatio="xMidYMid meet" viewBox="0 0 640 640" width="640" height="640"><defs><path d="M290 576C286.02 576 282.21 574.42 279.4 571.61C277.69 569.9 269.15 561.36 253.79 546C148.92 546 90.65 546 79 546C70.71 546 64 539.29 64 531C64 500.8 64 259.2 64 229C64 220.71 70.71 214 79 214C85.1 214 133.9 214 140 214C148.29 214 155 220.71 155 229C155 244.13 155 319.8 155 456C236 456 281 456 290 456C301.51 456 312.03 460.35 320 467.48C327.97 460.35 338.49 456 350 456C359 456 404 456 485 456C485 319.8 485 244.13 485 229C485 220.71 491.71 214 500 214C506.1 214 554.9 214 561 214C569.29 214 576 220.71 576 229C576 259.2 576 500.8 576 531C576 539.29 569.29 546 561 546C549.35 546 491.08 546 386.21 546C370.85 561.36 362.31 569.9 360.61 571.61C357.79 574.42 353.98 576 350 576C338 576 296 576 290 576Z" id="a3EcyLGcct"></path><path d="M350 576C353.98 576 357.79 574.42 360.61 571.61C362.31 569.9 370.85 561.36 386.21 546C491.08 546 549.35 546 561 546C569.29 546 576 539.29 576 531C576 500.8 576 259.2 576 229C576 220.71 569.29 214 561 214C554.9 214 506.1 214 500 214C491.71 214 485 220.71 485 229C485 244.13 485 319.8 485 456C404 456 359 456 350 456C338.49 456 327.97 460.35 320 467.48C320 474.72 320 510.89 320 576C336 576 346 576 350 576Z" id="b1tQ6Lf9m6"></path><path d="M215 199C215 189.4 216.2 181 218.3 173.2C220.89 162.86 213.55 154 203.9 154C197.51 154 146.39 154 140 154C131.6 154 125 160.6 125 169C125 199.2 125 440.8 125 471C125 479.4 131.6 486 140 486C155 486 275 486 290 486C298.4 486 305 492.6 305 501C305 509.4 311.6 516 320 516C322 509.72 332 478.31 350 421.78C332 374.51 322 348.25 320 343C306.8 320.8 288.2 302.2 266 288.7C233.9 269.5 215 235.9 215 199Z" id="a1jZm1o4Js"></path><path d="M515 471C515 479.4 508.4 486 500 486C485 486 365 486 350 486C341.6 486 335 492.6 335 501C335 509.4 328.4 516 320 516C320 498.7 320 360.3 320 343C332.9 321.1 351.5 302.2 374 288.7C406.1 269.5 425 235.9 425 199C425 189.4 423.8 181 421.7 173.2C419.11 162.86 426.45 154 436.1 154C442.49 154 493.61 154 500 154C508.4 154 515 160.6 515 169C515 229.4 515 440.8 515 471Z" id="d5lSeCVHf"></path><path d="M306.52 385.58C296.08 354.41 276.55 330.06 250.51 314.47C210.08 290.07 185 245.83 185 199C185 186.75 186.45 175.62 189.45 164.94C204.53 105.66 258.24 64 320 64C381.76 64 435.47 105.66 450.64 165.31C453.55 175.62 455 186.75 455 199C455 245.83 429.92 290.07 389.55 314.44C363.45 330.06 343.92 354.41 334.55 383.06C332.04 388.21 326.27 392.74 320.53 392.74C314.8 392.74 309.03 390.73 306.52 385.58Z" id="dHoDsfaUQ"></path><path d="M334.55 383.06C343.92 354.41 363.45 330.06 389.55 314.44C429.92 290.07 455 245.83 455 199C455 186.75 453.55 175.62 450.64 165.31C435.47 105.66 381.76 64 320 64C320 96.86 320 359.77 320 392.63C320.18 392.64 320.34 392.74 320.53 392.74C326.27 392.74 332.04 388.21 334.55 383.06Z" id="c1muyvBY9n"></path><path d="M335.3 211.3C335.3 219.7 328.4 227.8 320 227.8C311.9 227.8 305 222.4 305 214C305 201.4 310.7 190.9 320 185.5C321.5 184.6 323.3 183.7 325.1 183.1C331.1 181 335 175.3 335 169C335 160.6 328.4 154 320 154C311.6 154 305 160.6 305 169C305 177.4 298.4 184 290 184C281.6 184 275 177.4 275 169C275 144.1 295.1 124 320 124C344.9 124 365 144.1 365 169C365 187.9 353 205 335.3 211.3Z" id="hWVGHQAHc"></path><path d="M320 244C311.72 244 305 250.72 305 259C305 267.28 311.72 274 320 274C328.28 274 335 267.28 335 259C335 250.72 328.28 244 320 244Z" id="c1UClSBLEC"></path><path d="M320 244C320 247 320 271 320 274C328.28 274 335 267.28 335 259C335 250.72 328.28 244 320 244Z" id="cvqs2EKb"></path><path d="M335.3 211.3C335.3 219.7 328.4 227.8 320 227.8C320 223.57 320 189.73 320 185.5C321.5 184.6 323.3 183.7 325.1 183.1C331.1 181 335 175.3 335 169C335 160.6 328.4 154 320 154C320 151 320 127 320 124C344.9 124 365 144.1 365 169C365 187.9 353 205 335.3 211.3Z" id="b8Vej4BKY"></path></defs><g><g><g><use xlink:href="#a3EcyLGcct" opacity="1" fill="#ff641a" fill-opacity="1"></use><g><use xlink:href="#a3EcyLGcct" opacity="1" fill-opacity="0" stroke="#000000" stroke-width="1" stroke-opacity="0"></use></g></g><g><use xlink:href="#b1tQ6Lf9m6" opacity="1" fill="#f03800" fill-opacity="1"></use><g><use xlink:href="#b1tQ6Lf9m6" opacity="1" fill-opacity="0" stroke="#000000" stroke-width="1" stroke-opacity="0"></use></g></g><g><use xlink:href="#a1jZm1o4Js" opacity="1" fill="#fff5f5" fill-opacity="1"></use><g><use xlink:href="#a1jZm1o4Js" opacity="1" fill-opacity="0" stroke="#000000" stroke-width="1" stroke-opacity="0"></use></g></g><g><use xlink:href="#d5lSeCVHf" opacity="1" fill="#efe2dd" fill-opacity="1"></use><g><use xlink:href="#d5lSeCVHf" opacity="1" fill-opacity="0" stroke="#000000" stroke-width="1" stroke-opacity="0"></use></g></g><g><use xlink:href="#dHoDsfaUQ" opacity="1" fill="#fed843" fill-opacity="1"></use><g><use xlink:href="#dHoDsfaUQ" opacity="1" fill-opacity="0" stroke="#000000" stroke-width="1" stroke-opacity="0"></use></g></g><g><use xlink:href="#c1muyvBY9n" opacity="1" fill="#fabe2c" fill-opacity="1"></use><g><use xlink:href="#c1muyvBY9n" opacity="1" fill-opacity="0" stroke="#000000" stroke-width="1" stroke-opacity="0"></use></g></g><g><use xlink:href="#hWVGHQAHc" opacity="1" fill="#474f54" fill-opacity="1"></use><g><use xlink:href="#hWVGHQAHc" opacity="1" fill-opacity="0" stroke="#000000" stroke-width="1" stroke-opacity="0"></use></g></g><g><use xlink:href="#c1UClSBLEC" opacity="1" fill="#474f54" fill-opacity="1"></use><g><use xlink:href="#c1UClSBLEC" opacity="1" fill-opacity="0" stroke="#000000" stroke-width="1" stroke-opacity="0"></use></g></g><g><use xlink:href="#cvqs2EKb" opacity="1" fill="#32393f" fill-opacity="1"></use><g><use xlink:href="#cvqs2EKb" opacity="1" fill-opacity="0" stroke="#000000" stroke-width="1" stroke-opacity="0"></use></g></g><g><use xlink:href="#b8Vej4BKY" opacity="1" fill="#32393f" fill-opacity="1"></use><g><use xlink:href="#b8Vej4BKY" opacity="1" fill-opacity="0" stroke="#000000" stroke-width="1" stroke-opacity="0"></use></g></g></g></g></svg>